{
  "accessors": [
    {
      "bufferView": 2,
      "componentType": 5126,
      "count": 293,
      "max": [
        2.390376567840576,
        2.385417938232422,
        0.3017427325248718
      ],
      "min": [
        -2.494633197784424,
        -2.5172617435455322,
        -1.3938108682632446
      ],
      "type": "VEC3"
    },
    {
      "bufferView": 2,
      "byteOffset": 3516,
      "componentType": 5126,
      "count": 293,
      "max": [
        0.9994174838066101,
        0.9728829860687256,
        0.9999189972877502
      ],
      "min": [
        -0.9731816649436951,
        -0.9782320261001587,
        -0.9996963739395142
      ],
      "type": "VEC3"
    },
    {
      "bufferView": 1,
      "componentType": 5126,
      "count": 293,
      "max": [
        0.9950064420700073,
        0.9963845014572144
      ],
      "min": [
        0.004743625875562429,
        0.004246846307069063
      ],
      "type": "VEC2"
    },
    {
      "bufferView": 0,
      "componentType": 5125,
      "count": 1344,
      "type": "SCALAR"
    },
    {
      "bufferView": 2,
      "byteOffset": 7032,
      "componentType": 5126,
      "count": 1238,
      "max": [
        2.554622173309326,
        2.082895278930664,
        2.4019711017608643
      ],
      "min": [
        -1.818452000617981,
        -1.4091484546661377,
        -0.1507042944431305
      ],
      "type": "VEC3"
    },
    {
      "bufferView": 2,
      "byteOffset": 21888,
      "componentType": 5126,
      "count": 1238,
      "max": [
        0.999920666217804,
        0.9998147487640381,
        0.9999997019767761
      ],
      "min": [
        -0.9998984336853027,
        -0.9998810887336731,
        -0.9924605488777161
      ],
      "type": "VEC3"
    },
    {
      "bufferView": 1,
      "byteOffset": 2344,
      "componentType": 5126,
      "count": 1238,
      "max": [
        0.9742468595504761,
        0.9708566665649414
      ],
      "min": [
        0.01674811542034149,
        0.03391566872596741
      ],
      "type": "VEC2"
    },
    {
      "bufferView": 0,
      "byteOffset": 5376,
      "componentType": 5125,
      "count": 4110,
      "type": "SCALAR"
    },
    {
      "bufferView": 2,
      "byteOffset": 36744,
      "componentType": 5126,
      "count": 2315,
      "max": [
        2.602055788040161,
        2.3678364753723145,
        2.443931818008423
      ],
      "min": [
        -2.274773597717285,
        -2.226367950439453,
        -0.22043195366859436
      ],
      "type": "VEC3"
    },
    {
      "bufferView": 2,
      "byteOffset": 64524,
      "componentType": 5126,
      "count": 2315,
      "max": [
        1.0,
        0.9999861121177673,
        1.0
      ],
      "min": [
        -0.9914751052856445,
        -1.0,
        -0.9990038275718689
      ],
      "type": "VEC3"
    },
    {
      "bufferView": 1,
      "byteOffset": 12248,
      "componentType": 5126,
      "count": 2315,
      "max": [
        0.9674712419509888,
        0.9858217239379883
      ],
      "min": [
        0.01807224750518799,
        0.005113095045089722
      ],
      "type": "VEC2"
    },
    {
      "bufferView": 0,
      "byteOffset": 21816,
      "componentType": 5125,
      "count": 8364,
      "type": "SCALAR"
    },
    {
      "bufferView": 2,
      "byteOffset": 92304,
      "componentType": 5126,
      "count": 1488,
      "max": [
        1.7463784217834473,
        2.338942289352417,
        0.30923548340797424
      ],
      "min": [
        -2.240830421447754,
        -1.9972927570343018,
        -0.2970607280731201
      ],
      "type": "VEC3"
    },
    {
      "bufferView": 2,
      "byteOffset": 110160,
      "componentType": 5126,
      "count": 1488,
      "max": [
        0.9999611377716064,
        0.9989913702011108,
        0.9999505281448364
      ],
      "min": [
        -0.9943937063217163,
        -0.9965679049491882,
        -0.997481644153595
      ],
      "type": "VEC3"
    },
    {
      "bufferView": 1,
      "byteOffset": 30768,
      "componentType": 5126,
      "count": 1488,
      "max": [
        0.9937249422073364,
        0.9937249422073364
      ],
      "min": [
        0.006584863644093275,
        0.006912966258823872
      ],
      "type": "VEC2"
    },
    {
      "bufferView": 0,
      "byteOffset": 55272,
      "componentType": 5125,
      "count": 2760,
      "type": "SCALAR"
    }
  ],
  "asset": {
    "extras": {
      "author": "P3POLYGON (https://sketchfab.com/P3PIXEL)",
      "license": "CC-BY-4.0 (http://creativecommons.org/licenses/by/4.0/)",
      "source": "https://sketchfab.com/3d-models/forest-44572b5a16fe41a7bc8afc9c482e2e1a",
      "title": "Forest"
    },
    "generator": "Sketchfab-16.14.0",
    "version": "2.0"
  },
  "bufferViews": [
    {
      "buffer": 0,
      "byteLength": 66312,
      "name": "floatBufferViews",
      "target": 34963
    },
    {
      "buffer": 0,
      "byteLength": 42672,
      "byteOffset": 66312,
      "byteStride": 8,
      "name": "floatBufferViews",
      "target": 34962
    },
    {
      "buffer": 0,
      "byteLength": 128016,
      "byteOffset": 108984,
      "byteStride": 12,
      "name": "floatBufferViews",
      "target": 34962
    }
  ],
  "buffers": [
    {
      "byteLength": 237000,
      "uri": "scene.bin"
    }
  ],
  "images": [
    {
      "uri": "textures/land_baseColor.png"
    },
    {
      "uri": "textures/tree_baseColor.png"
    },
    {
      "uri": "textures/leaf_and_grass_baseColor.png"
    },
    {
      "uri": "textures/rock_baseColor.png"
    }
  ],
  "materials": [
    {
      "doubleSided": true,
      "name": "land",
      "pbrMetallicRoughness": {
        "baseColorTexture": {
          "index": 0
        },
        "metallicFactor": 0.0,
        "roughnessFactor": 0.8211145618000169
      }
    },
    {
      "doubleSided": true,
      "name": "tree",
      "pbrMetallicRoughness": {
        "baseColorTexture": {
          "index": 1
        },
        "metallicFactor": 0.0,
        "roughnessFactor": 0.8211145618000169
      }
    },
    {
      "alphaMode": "BLEND",
      "doubleSided": true,
      "name": "leaf_and_grass",
      "pbrMetallicRoughness": {
        "baseColorTexture": {
          "index": 2
        },
        "metallicFactor": 0.0,
        "roughnessFactor": 0.8979044507564213
      }
    },
    {
      "doubleSided": true,
      "name": "rock",
      "pbrMetallicRoughness": {
        "baseColorTexture": {
          "index": 3
        },
        "metallicFactor": 0.0,
        "roughnessFactor": 0.8211145618000169
      }
    }
  ],
  "meshes": [
    {
      "name": "Forest_land_0",
      "primitives": [
        {
          "attributes": {
            "NORMAL": 1,
            "POSITION": 0,
            "TEXCOORD_0": 2
          },
          "indices": 3,
          "material": 0,
          "mode": 4
        }
      ]
    },
    {
      "name": "Forest_tree_0",
      "primitives": [
        {
          "attributes": {
            "NORMAL": 5,
            "POSITION": 4,
            "TEXCOORD_0": 6
          },
          "indices": 7,
          "material": 1,
          "mode": 4
        }
      ]
    },
    {
      "name": "Forest_leaf and grass_0",
      "primitives": [
        {
          "attributes": {
            "NORMAL": 9,
            "POSITION": 8,
            "TEXCOORD_0": 10
          },
          "indices": 11,
          "material": 2,
          "mode": 4
        }
      ]
    },
    {
      "name": "Forest_rock_0",
      "primitives": [
        {
          "attributes": {
            "NORMAL": 13,
            "POSITION": 12,
            "TEXCOORD_0": 14
          },
          "indices": 15,
          "material": 3,
          "mode": 4
        }
      ]
    }
  ],
  "nodes": [
    {
      "children": [
        1
      ],
      "matrix": [
        2.9810614585876465,
        0.0,
        0.0,
        0.0,
        0.0,
        1.1413198510275475e-15,
        -2.9810614585876465,
        0.0,
        0.0,
        2.9810614585876465,
        1.1413198510275475e-15,
        0.0,
        0.0,
        0.0,
        0.0,
        1.0
      ],
      "name": "Sketchfab_model"
    },
    {
      "children": [
        2
      ],
      "matrix": [
        0.009999999776482582,
        0.0,
        0.0,
        0.0,
        0.0,
        0.0,
        0.009999999776482582,
        0.0,
        0.0,
        -0.009999999776482582,
        0.0,
        0.0,
        0.0,
        0.0,
        0.0,
        1.0
      ],
      "name": "forest.fbx"
    },
    {
      "children": [
        3
      ],
      "name": "RootNode"
    },
    {
      "children": [
        4,
        5,
        6,
        7
      ],
      "matrix": [
        100.0,
        0.0,
        0.0,
        0.0,
        0.0,
        -1.629206793918314e-05,
        -99.99999999999868,
        0.0,
        0.0,
        99.99999999999868,
        -1.629206793918314e-05,
        0.0,
        0.0,
        0.0,
        0.0,
        1.0
      ],
      "name": "Forest"
    },
    {
      "mesh": 0,
      "name": "Forest_land_0"
    },
    {
      "mesh": 1,
      "name": "Forest_tree_0"
    },
    {
      "mesh": 2,
      "name": "Forest_leaf and grass_0"
    },
    {
      "mesh": 3,
      "name": "Forest_rock_0"
    }
  ],
  "samplers": [
    {
      "magFilter": 9729,
      "minFilter": 9987,
      "wrapS": 10497,
      "wrapT": 10497
    }
  ],
  "scene": 0,
  "scenes": [
    {
      "name": "Sketchfab_Scene",
      "nodes": [
        0
      ]
    }
  ],
  "textures": [
    {
      "sampler": 0,
      "source": 0
    },
    {
      "sampler": 0,
      "source": 1
    },
    {
      "sampler": 0,
      "source": 2
    },
    {
      "sampler": 0,
      "source": 3
    }
  ]
}
